# xmcd
#
# Track frame offsets:
#	150
#	21840
#	37070
#	56500
#	71567
#	87457
#	105490
#	123962
#	141035
#	158325
#	174255
#	192092
#	210587
#	228835
#	246435
#
# Disc length: 3547 seconds
#
# Revision: 1
# Processed by: cddbd v1.5.2PL0 Copyright (c) Steve Scherf et al.
# Submitted via: audiograbber 1.83.01
#
DISCID=c10dd90f
DTITLE=Sound Choice - SC8623
DYEAR=1900
DGENRE=
TTITLE0=Brooks, Garth - When You Come Back To Me
TTITLE1=Yearwood, Trisha - Come Back When It Ain't Rainin'
TTITLE2=Judd, Wynonna - Going Nowhere
TTITLE3=Black, Clint - Galaxy Song
TTITLE4=Brown, Sawyer - I Do Now
TTITLE5=Moorer, Allison - Send Down An Angel
TTITLE6=Vassar, Phil - Just Another Day In Paradise
TTITLE7=Loveless, Patty - That's The Kind Of Mood I'm In
TTITLE8=Black, Clint - Love She Can't Live Without
TTITLE9=Brown, Sawyer - Perfect World
TTITLE10=Paisley, Brad - We Danced
TTITLE11=Nickel Creek - Reasons Why
TTITLE12=Day, Jennifer - What If It's Me
TTITLE13=Raye, Collin and Eakes, Bobbie - Tired Of Loving This Way
TTITLE14=Hart, Tara Lyn - That's When You Came Along
EXTD=
EXTT0=
EXTT1=
EXTT2=
EXTT3=
EXTT4=
EXTT5=
EXTT6=
EXTT7=
EXTT8=
EXTT9=
EXTT10=
EXTT11=
EXTT12=
EXTT13=
EXTT14=
PLAYORDER=
